<?xml version="1.0" encoding="UTF-8" standalone="no"?>
<!-- Created with Inkscape (http://www.inkscape.org/) -->

<svg
   xmlns:dc="http://purl.org/dc/elements/1.1/"
   xmlns:cc="http://creativecommons.org/ns#"
   xmlns:rdf="http://www.w3.org/1999/02/22-rdf-syntax-ns#"
   xmlns:svg="http://www.w3.org/2000/svg"
   xmlns="http://www.w3.org/2000/svg"
   xmlns:sodipodi="http://sodipodi.sourceforge.net/DTD/sodipodi-0.dtd"
   xmlns:inkscape="http://www.inkscape.org/namespaces/inkscape"
   width="324"
   height="70"
   id="svg2"
   version="1.1"
   inkscape:version="0.48.2 r9819"
   sodipodi:docname="display.svg">
  <defs
     id="defs4">
    <font
       horiz-adv-x="1024"
       id="font3058"
       inkscape:label="font 1"
       horiz-origin-x="0"
       horiz-origin-y="0"
       vert-origin-x="45"
       vert-origin-y="90"
       vert-adv-y="90">
      <font-face
         units-per-em="1024"
         id="font-face3060"
         font-family="LCD display" />
      <missing-glyph
         d="M0,0h1000v1024h-1000z"
         id="missing-glyph3062" />
      <glyph
         glyph-name="glifo 1"
         id="glyph3077"
         unicode="1"
         d="m 763.28125,956.125 -57.65625,-58.34375 -0.46875,-317.25 58.125,-55.25 c 0,0 61,-5.16308 61,55.34375 L 823.9375,898 c -2.44615,56.2314 -60.65625,58.125 -60.65625,58.125 z M 768.25,503.96875 c -3.20532,-0.085 -5.09375,-0.4375 -5.09375,-0.4375 l -57.78125,-58.375 -0.34375,-317.8125 58.125,-55.375 c 0,0 63.47609,-0.73145 61.03125,55.5 L 823.84375,445.375 c -4.21385,54.78026 -41.70406,58.96235 -55.59375,58.59375 z" />
      <glyph
         glyph-name="glifo 2"
         id="glyph3097"
         unicode="2"
         d="m 388.375,1023.6875 c -56.23142,-2.4449 -58.71875,-57.78125 -58.71875,-57.78125 l 58.5,-61.59375 L 699.75,904.78125 754.53125,965 c 0,0 -6.82185,58.6875 -55.71875,58.6875 l -310.4375,0 z M 763.28125,956.125 705.625,897.78125 l -0.46875,-317.25 58.125,-55.25 c 0,0 61,-5.16308 61,55.34375 L 823.9375,898 c -2.44615,56.2314 -60.65625,58.125 -60.65625,58.125 z M 388.375,572.59375 329.65625,514.6875 l 58.5,-61.59375 311.59375,0.46875 54.78125,60.3125 -55.71875,58.59375 -310.4375,0.125 z M 315.84375,503.875 c -1.06476,0.009 -2.25799,-0.047 -3.5625,-0.125 -15.65441,-0.94729 -47.1976,-9.08567 -49.03125,-58.59375 l -0.34375,-317.8125 c 4.88969,-44.00725 58.125,-55.375 58.125,-55.375 l 61,55.5 -0.34375,317.90625 -60.65625,58.15625 c 0,0 -1.99323,0.32386 -5.1875,0.34375 z m 72.3125,-384.25 -58.59375,-58 c 0,0 -4.97222,-63.6949 58.59375,-61.25 l 306.40625,0 c 66.01079,2.4449 59.75,61.46875 59.75,61.46875 l -55.71875,57.78125 -310.4375,0 z" />
      <glyph
         glyph-name="glifo 3"
         id="glyph3115"
         unicode="3"
         d="m 388.375,1023.6875 c -56.23142,-2.4449 -58.71875,-57.78125 -58.71875,-57.78125 l 58.5,-61.59375 L 699.75,904.78125 754.53125,965 c 0,0 -6.82185,58.6875 -55.71875,58.6875 l -310.4375,0 z M 763.28125,956.125 705.625,897.78125 l -0.46875,-317.25 58.125,-55.25 c 0,0 61,-5.16308 61,55.34375 L 823.9375,898 c -2.44615,56.2314 -60.65625,58.125 -60.65625,58.125 z M 388.375,572.59375 329.65625,514.6875 l 58.5,-61.59375 311.59375,0.46875 54.78125,60.3125 -55.71875,58.59375 -310.4375,0.125 z m 379.875,-68.625 c -3.20532,-0.085 -5.09375,-0.4375 -5.09375,-0.4375 l -57.78125,-58.375 -0.34375,-317.8125 58.125,-55.375 c 0,0 63.47609,-0.73145 61.03125,55.5 L 823.84375,445.375 C 819.6299,500.15526 782.13969,504.33735 768.25,503.96875 z M 388.15625,119.625 l -58.59375,-58 c 0,0 -4.97222,-63.6949 58.59375,-61.25 l 306.40625,0 c 66.01079,2.4449 59.75,61.46875 59.75,61.46875 l -55.71875,57.78125 -310.4375,0 z" />
      <glyph
         glyph-name="glifo 4"
         id="glyph3129"
         unicode="4"
         d="m 320.625,956.125 c -6.34844,-0.1802 -57.15625,-3.33485 -57.15625,-58.34375 l -0.34375,-317.25 c 2.44486,-46.45205 58.15625,-55.25 58.15625,-55.25 l 61,55.34375 L 381.9375,898 321.28125,956.125 c 0,0 -0.23302,0.012 -0.65625,0 z m 442.65625,0 -57.65625,-58.34375 -0.46875,-317.25 58.125,-55.25 c 0,0 61,-5.16308 61,55.34375 L 823.9375,898 c -2.44615,56.2314 -60.65625,58.125 -60.65625,58.125 z M 388.375,572.59375 329.65625,514.6875 l 58.5,-61.59375 311.59375,0.46875 54.78125,60.3125 -55.71875,58.59375 -310.4375,0.125 z m 379.875,-68.625 c -3.20532,-0.085 -5.09375,-0.4375 -5.09375,-0.4375 l -57.78125,-58.375 -0.34375,-317.8125 58.125,-55.375 c 0,0 63.47609,-0.73145 61.03125,55.5 L 823.84375,445.375 c -4.21385,54.78026 -41.70406,58.96235 -55.59375,58.59375 z" />
      <glyph
         glyph-name="glifo 5"
         id="glyph3140"
         unicode="5"
         d="m 388.375,1023.6875 c -56.23142,-2.4449 -58.71875,-57.78125 -58.71875,-57.78125 l 58.5,-61.59375 L 699.75,904.78125 754.53125,965 c 0,0 -6.82185,58.6875 -55.71875,58.6875 l -310.4375,0 z m -67.75,-67.5625 c -6.34844,-0.1802 -57.15625,-3.33485 -57.15625,-58.34375 l -0.34375,-317.25 c 2.44486,-46.45205 58.15625,-55.25 58.15625,-55.25 l 61,55.34375 L 381.9375,898 321.28125,956.125 c 0,0 -0.23302,0.012 -0.65625,0 z m 67.75,-383.53125 -58.71875,-57.90625 58.5,-61.59375 311.59375,0.46875 54.78125,60.3125 -55.71875,58.59375 -310.4375,0.125 z m 379.875,-68.625 c -3.20532,-0.085 -5.09375,-0.4375 -5.09375,-0.4375 l -57.78125,-58.375 -0.34375,-317.8125 58.125,-55.375 c 0,0 63.47609,-0.73145 61.03125,55.5 L 823.84375,445.375 C 819.6299,500.15526 782.13969,504.33735 768.25,503.96875 z M 388.15625,119.625 l -58.59375,-58 c 0,0 -4.97222,-63.6949 58.59375,-61.25 l 306.40625,0 c 66.01079,2.4449 59.75,61.46875 59.75,61.46875 l -55.71875,57.78125 -310.4375,0 z" />
      <glyph
         glyph-name="glifo 6"
         id="glyph3142"
         unicode="6"
         d="m 388.375,1023.6875 c -56.23142,-2.4449 -58.71875,-57.78125 -58.71875,-57.78125 l 58.5,-61.59375 L 699.75,904.78125 754.53125,965 c 0,0 -6.82185,58.6875 -55.71875,58.6875 l -310.4375,0 z m -67.75,-67.5625 c -6.34844,-0.1802 -57.15625,-3.33485 -57.15625,-58.34375 l -0.34375,-317.25 c 2.44486,-46.45205 58.15625,-55.25 58.15625,-55.25 l 61,55.34375 L 381.9375,898 321.28125,956.125 c 0,0 -0.23302,0.012 -0.65625,0 z m 67.75,-383.53125 -58.71875,-57.90625 58.5,-61.59375 311.59375,0.46875 54.78125,60.3125 -55.71875,58.59375 -310.4375,0.125 z m 379.875,-68.625 c -3.20532,-0.085 -5.09375,-0.4375 -5.09375,-0.4375 l -57.78125,-58.375 -0.34375,-317.8125 58.125,-55.375 c 0,0 63.47609,-0.73145 61.03125,55.5 L 823.84375,445.375 C 819.6299,500.15526 782.13969,504.33735 768.25,503.96875 z M 315.84375,503.875 c -1.06476,0.009 -2.25799,-0.047 -3.5625,-0.125 -15.65441,-0.94729 -47.1976,-9.08567 -49.03125,-58.59375 l -0.34375,-317.8125 c 4.88969,-44.00725 58.125,-55.375 58.125,-55.375 l 61,55.5 -0.34375,317.90625 -60.65625,58.15625 c 0,0 -1.99323,0.32386 -5.1875,0.34375 z m 72.3125,-384.25 -58.59375,-58 c 0,0 -4.97222,-63.6949 58.59375,-61.25 l 306.40625,0 c 66.01079,2.4449 59.75,61.46875 59.75,61.46875 l -55.71875,57.78125 -310.4375,0 z" />
      <glyph
         glyph-name="glifo 7"
         id="glyph3158"
         d="m 388.375,1023.6875 c -56.23142,-2.4449 -58.71875,-57.78125 -58.71875,-57.78125 l 58.5,-61.59375 L 699.75,904.78125 754.53125,965 c 0,0 -6.82185,58.6875 -55.71875,58.6875 l -310.4375,0 z M 763.28125,956.125 705.625,897.78125 l -0.46875,-317.25 58.125,-55.25 c 0,0 61,-5.16308 61,55.34375 L 823.9375,898 c -2.44615,56.23139 -60.65625,58.125 -60.65625,58.125 z M 768.25,503.96875 c -3.20532,-0.085 -5.09375,-0.4375 -5.09375,-0.4375 l -57.78125,-58.375 -0.34375,-317.8125 58.125,-55.375 c 0,0 63.47609,-0.73145 61.03125,55.5 L 823.84375,445.375 c -4.21385,54.78026 -41.70406,58.96235 -55.59375,58.59375 z"
         unicode="7" />
      <glyph
         glyph-name="glifo 8"
         id="glyph3161"
         unicode="8"
         d="m 388.375,1023.6875 c -56.23142,-2.4449 -58.71875,-57.78125 -58.71875,-57.78125 l 58.5,-61.59375 L 699.75,904.78125 754.53125,965 c 0,0 -6.82185,58.6875 -55.71875,58.6875 l -310.4375,0 z m -67.75,-67.5625 c -6.34844,-0.1802 -57.15625,-3.33485 -57.15625,-58.34375 l -0.34375,-317.25 c 2.44486,-46.45205 58.15625,-55.25 58.15625,-55.25 l 61,55.34375 L 381.9375,898 321.28125,956.125 c 0,0 -0.23302,0.012 -0.65625,0 z m 442.65625,0 -57.65625,-58.34375 -0.46875,-317.25 58.125,-55.25 c 0,0 61,-5.16308 61,55.34375 L 823.9375,898 c -2.44615,56.23139 -60.65625,58.125 -60.65625,58.125 z M 388.375,572.59375 329.65625,514.6875 l 58.5,-61.59375 311.59375,0.46875 54.78125,60.3125 -55.71875,58.59375 -310.4375,0.125 z m 379.875,-68.625 c -3.20532,-0.085 -5.09375,-0.4375 -5.09375,-0.4375 l -57.78125,-58.375 -0.34375,-317.8125 58.125,-55.375 c 0,0 63.47609,-0.73145 61.03125,55.5 L 823.84375,445.375 C 819.6299,500.15526 782.13969,504.33735 768.25,503.96875 z M 315.84375,503.875 c -1.06476,0.009 -2.25799,-0.047 -3.5625,-0.125 -15.65441,-0.94729 -47.1976,-9.08567 -49.03125,-58.59375 l -0.34375,-317.8125 c 4.88969,-44.00725 58.125,-55.375 58.125,-55.375 l 61,55.5 -0.34375,317.90625 -60.65625,58.15625 c 0,0 -1.99323,0.32386 -5.1875,0.34375 z m 72.3125,-384.25 -58.59375,-58 c 0,0 -4.97222,-63.6949 58.59375,-61.25 l 306.40625,0 c 66.01079,2.4449 59.75,61.46875 59.75,61.46875 l -55.71875,57.78125 -310.4375,0 z" />
      <glyph
         glyph-name="glifo 9"
         id="glyph3178"
         unicode="9"
         d="m 388.375,1023.6875 c -56.23142,-2.4449 -58.71875,-57.78125 -58.71875,-57.78125 l 58.5,-61.59375 L 699.75,904.78125 754.53125,965 c 0,0 -6.82185,58.6875 -55.71875,58.6875 l -310.4375,0 z m -67.75,-67.5625 c -6.34844,-0.1802 -57.15625,-3.33486 -57.15625,-58.34375 l -0.34375,-317.25 c 2.44486,-46.45205 58.15625,-55.25 58.15625,-55.25 l 61,55.34375 L 381.9375,898 321.28125,956.125 c 0,0 -0.23302,0.012 -0.65625,0 z m 442.65625,0 -57.65625,-58.34375 -0.46875,-317.25 58.125,-55.25 c 0,0 61,-5.16308 61,55.34375 L 823.9375,898 c -2.44615,56.23138 -60.65625,58.125 -60.65625,58.125 z M 388.375,572.59375 329.65625,514.6875 l 58.5,-61.59375 311.59375,0.46875 54.78125,60.3125 -55.71875,58.59375 -310.4375,0.125 z m 379.875,-68.625 c -3.20532,-0.085 -5.09375,-0.4375 -5.09375,-0.4375 l -57.78125,-58.375 -0.34375,-317.8125 58.125,-55.375 c 0,0 63.47609,-0.73145 61.03125,55.5 L 823.84375,445.375 C 819.6299,500.15526 782.13969,504.33735 768.25,503.96875 z M 388.15625,119.625 l -58.59375,-58 c 0,0 -4.97222,-63.6949 58.59375,-61.25 l 306.40625,0 c 66.01079,2.4449 59.75,61.46875 59.75,61.46875 l -55.71875,57.78125 -310.4375,0 z" />
      <glyph
         glyph-name="glifo 10"
         id="glyph3180"
         unicode="0"
         d="m 388.375,1023.6875 c -56.23142,-2.4449 -58.71875,-57.78125 -58.71875,-57.78125 l 58.5,-61.59375 L 699.75,904.78125 754.53125,965 c 0,0 -6.82185,58.6875 -55.71875,58.6875 l -310.4375,0 z m -67.75,-67.5625 c -6.34844,-0.1802 -57.15625,-3.33486 -57.15625,-58.34375 l -0.34375,-317.25 c 2.44486,-46.45205 58.15625,-55.25 58.15625,-55.25 l 61,55.34375 L 381.9375,898 321.28125,956.125 c 0,0 -0.23302,0.012 -0.65625,0 z m 442.65625,0 -57.65625,-58.34375 -0.46875,-317.25 58.125,-55.25 c 0,0 61,-5.16308 61,55.34375 L 823.9375,898 c -2.44615,56.23139 -60.65625,58.125 -60.65625,58.125 z M 768.25,503.96875 c -3.20532,-0.085 -5.09375,-0.4375 -5.09375,-0.4375 l -57.78125,-58.375 -0.34375,-317.8125 58.125,-55.375 c 0,0 63.47609,-0.73145 61.03125,55.5 L 823.84375,445.375 C 819.6299,500.15526 782.13969,504.33735 768.25,503.96875 z M 315.84375,503.875 c -1.06476,0.009 -2.25799,-0.047 -3.5625,-0.125 -15.65441,-0.94729 -47.1976,-9.08567 -49.03125,-58.59375 l -0.34375,-317.8125 c 4.88969,-44.00725 58.125,-55.375 58.125,-55.375 l 61,55.5 -0.34375,317.90625 -60.65625,58.15625 c 0,0 -1.99323,0.32386 -5.1875,0.34375 z m 72.3125,-384.25 -58.59375,-58 c 0,0 -4.97222,-63.6949 58.59375,-61.25 l 306.40625,0 c 66.01079,2.4449 59.75,61.46875 59.75,61.46875 l -55.71875,57.78125 -310.4375,0 z" />
      <glyph
         glyph-name="glifo 11"
         id="glyph3379"
         unicode="-"
         d="m 388.375,544.23157 -58.71875,-57.90625 58.5,-61.59375 311.59375,0.46875 54.78125,60.3125 -55.71875,58.59375 -310.4375,0.125 z" />
      <glyph
         glyph-name="glifo 12"
         id="glyph3383"
         unicode="+"
         d="m 541.0625,725.28125 -58.59375,-55.71875 -0.0312,-97 -94.0625,0.0312 -58.71875,-57.90625 58.5,-61.59375 94.21875,0.15625 -0.0312,-94.125 57.90625,-58.71875 61.59375,58.5 -0.15625,94.5 98.0625,0.15625 54.78125,60.3125 -55.71875,58.59375 -97.28125,0.0312 -0.15625,98 -60.3125,54.78125 z" />
      <glyph
         glyph-name="glifo 13"
         id="glyph3388"
         unicode="*"
         d="m 691.58054,635.42677 -80.83114,2.03293 -68.61146,-68.56726 -66.49013,66.53433 -82.46633,0.57452 -2.18761,-84.9191 66.7332,-66.51223 -66.57852,-66.53433 -0.57452,-82.46633 84.9191,-2.18761 66.71111,66.93207 69.45114,-69.23017 81.38357,3.91118 2.03293,80.83115 -68.76613,68.81033 69.18598,69.40695 -3.91119,81.38357 z" />
      <glyph
         glyph-name="glifo 14"
         id="glyph3412"
         unicode="/"
         d="m 542.09375,725.46875 c -32.14105,0 -58.1875,-26.0777 -58.1875,-58.21875 0,-32.14105 26.04645,-58.1875 58.1875,-58.1875 32.14104,0 58.1875,26.04645 58.1875,58.1875 0,32.14105 -26.04646,58.21875 -58.1875,58.21875 z M 388.375,572.59375 329.65625,514.6875 l 58.5,-61.59375 311.59375,0.46875 54.78125,60.3125 -55.71875,58.59375 -310.4375,0.125 z m 157.46875,-155.25 c -32.14105,0 -58.1875,-26.0777 -58.1875,-58.21875 0,-32.14105 26.04645,-58.1875 58.1875,-58.1875 32.14104,0 58.1875,26.04645 58.1875,58.1875 0,32.14105 -26.04646,58.21875 -58.1875,58.21875 z" />
      <glyph
         glyph-name="glifo 15"
         id="glyph4213"
         unicode="%"
         d="m 462.59375,722.4375 c -31.10424,0 -56.3125,-25.20826 -56.3125,-56.3125 0,-31.10425 25.20826,-56.3125 56.3125,-56.3125 31.10425,0 56.3125,25.20825 56.3125,56.3125 0,31.10424 -25.20825,56.3125 -56.3125,56.3125 z M 610.75,665.8125 391.15625,446.40625 390.5625,363.9375 475.5,361.75 l 220,220.65625 -3.90625,81.375 L 610.75,665.8125 z M 623.46875,417.75 c -31.10424,0 -56.3125,-25.20826 -56.3125,-56.3125 0,-31.10425 25.20826,-56.3125 56.3125,-56.3125 31.10425,0 56.3125,25.20825 56.3125,56.3125 0,31.10424 -25.20825,56.3125 -56.3125,56.3125 z" />
      <glyph
         glyph-name="glifo 16"
         id="glyph4229"
         unicode="&amp;radic;"
         d="m 441.05604,577.35999 c 6.87372,-7.6691 15.16118,-13.99366 22.63519,-21.11189 5.62992,-5.8288 11.49067,-11.78979 15.89358,-18.65404 1.52749,-2.38141 4.30897,-7.80682 5.63827,-10.33827 5.21602,-11.72758 10.48035,-23.35621 16.27621,-34.80745 5.33226,-14.51183 14.27103,-27.13939 22.86705,-39.83235 8.61476,-12.10505 17.04361,-24.25612 24.5624,-37.07608 6.17587,-10.71576 11.16307,-22.05217 16.51958,-33.19484 4.5752,-8.9366 9.77941,-17.53702 15.79148,-25.578 3.73837,-4.03402 6.50778,-8.82834 9.773,-13.20532 0.59777,-0.80131 1.3314,-1.49167 1.99711,-2.23751 0.57541,-0.82762 1.15083,-1.65524 1.72624,-2.48285 0.47441,-0.93221 1.14962,-3.46072 2.83173,-3.57136 0.48914,-0.0322 1.79642,0.65959 1.30647,0.67509 -34.19808,1.08197 -68.40255,2.05129 -102.61439,2.53012 -0.77535,0.0109 1.27689,-1.27311 2.03754,-1.12245 1.01621,0.20127 1.58724,1.33172 2.38087,1.99758 7.59429,6.85807 12.47293,16.11838 17.28224,25.01128 6.6321,13.4438 13.02197,26.99602 19.24439,40.63366 6.30705,15.16976 12.0537,30.62501 17.18679,46.23405 4.44703,13.09206 10.34843,25.61386 15.78901,38.30944 6.40706,14.89009 12.15893,30.0484 17.9525,45.1878 6.81535,15.62379 13.46188,31.31886 19.67058,47.19368 5.2199,13.08375 10.035,26.34466 15.88208,39.16615 4.80928,10.93093 9.72338,21.75787 14.24792,32.82295 4.49565,10.40779 8.69036,20.94052 13.28502,31.30538 4.34634,10.1017 8.93793,20.0526 13.21178,30.1957 2.99404,6.16884 3.86576,13.66175 7.81332,19.39242 0.82577,1.19878 1.8724,2.22936 2.8086,3.34404 1.21213,0.76028 2.32851,1.70053 3.63638,2.28083 10.56775,4.6889 27.81517,4.16631 39.00954,4.4612 34.90451,0.89511 69.81255,1.66297 104.72069,2.4478 16.35516,0.28443 32.70979,0.60144 49.06343,0.96243 0,0 96.12621,-15.18053 96.12621,-15.18053 l 0,0 c -18.4214,0.18576 -36.84429,0.29176 -55.26637,0.11487 -33.1487,-0.27302 -66.3178,-0.85975 -99.40027,-3.10166 -7.81511,-0.33454 -15.66602,-0.55482 -23.45758,-1.30316 -2.84805,-0.27354 -5.6422,-0.99691 -8.49241,-1.24694 -0.98609,-0.0865 -1.97904,0.0533 -2.96855,0.0799 -0.78168,0.0472 -1.59278,0.35915 -2.34502,0.1415 -4.06364,-1.17575 -8.51001,-12.98697 -10.16958,-16.42014 -4.26779,-10.15957 -8.4803,-20.33704 -12.83997,-30.43051 -4.6458,-10.33259 -9.85251,-20.42974 -13.88396,-31.02031 -4.71445,-11.14513 -9.16794,-22.39552 -14.66804,-33.17973 -5.94896,-12.81308 -12.1323,-25.5029 -17.32947,-38.66049 -6.64999,-15.72307 -13.53174,-31.32671 -20.14742,-47.0635 -6.07883,-14.99488 -10.47911,-30.58286 -16.88114,-45.43987 -1.82729,-4.46989 -3.86202,-8.85641 -5.57142,-13.37269 -3.37807,-8.92492 -0.96358,-4.48265 -4.71363,-12.72009 -0.84552,-1.85728 -1.93217,-3.60041 -2.7441,-5.47261 -0.91056,-2.09962 -1.61084,-4.28431 -2.41626,-6.42646 -6.6137,-15.35349 -13.1975,-30.72143 -18.58505,-46.56128 -5.49134,-13.93535 -11.13955,-27.75903 -17.42569,-41.35901 -0.88718,-1.90504 -1.77436,-3.81008 -2.66154,-5.71512 -0.74658,-1.91028 -1.39168,-3.8634 -2.23974,-5.73085 -2.64524,-5.82482 -6.41009,-11.08123 -9.63782,-16.57668 -0.64477,-0.89296 -1.44481,-1.69222 -1.9343,-2.67887 -0.74929,-1.5103 -0.0638,-4.70082 -1.74918,-4.74577 -177.31076,-4.72883 -86.02065,-28.33092 -108.86146,8.44306 -3.92637,5.98046 -7.54304,12.16997 -11.76612,17.96018 -5.60635,8.87265 -10.98437,17.91999 -15.38278,27.46301 -4.45598,10.90957 -9.45222,21.60036 -14.71882,32.14137 -7.45965,12.62216 -16.37443,24.21779 -24.33713,36.51483 -8.68046,13.13419 -16.3564,26.8889 -23.24751,41.04495 -5.78384,11.56778 -12.10578,22.8765 -17.81318,34.48289 -5.21918,9.56325 -12.26725,18.04246 -20.12713,25.56514 -8.53786,7.21144 -17.42074,14.20936 -27.10702,19.81247 0,0 104.33685,9.70294 104.33685,9.70294 z" />
      <glyph
         glyph-name="glifo 17"
         id="glyph4315"
         unicode="M"
         d="m 329.70713,264.92316 0,445.68387 134.67801,0 80.86761,-304.01355 79.95555,304.01355 134.98204,0 0,-445.68387 -83.60373,0 0,350.83164 -88.46795,-350.83164 -86.64387,0 -88.16393,350.83164 0,-350.83164 z" />
      <glyph
         glyph-name="glifo 18"
         id="glyph4327"
         unicode="E"
         d="m 373.48829,264.92316 0,450.87172 334.30939,0 0,-76.27298 -243.2739,0 0,-99.95451 226.35853,0 0,-75.96542 -226.35853,0 0,-122.71339 251.88537,0 0,-75.96542 z" />
      <glyph
         glyph-name="glifo 19"
         id="glyph4336"
         unicode="("
         d="m 611.5201,264.92318 -44.96491,0 c -23.76391,35.8788 -41.85857,73.15536 -54.28405,111.82982 -12.42557,38.67443 -18.63833,76.10631 -18.63831,112.29577 -2e-5,44.88708 7.68827,87.36684 23.0649,127.4394 13.35739,34.79122 30.28717,66.8646 50.78938,96.22024 l 44.73193,0 C 590.94019,665.6464 576.30137,625.61292 568.30253,592.60785 560.3035,559.60232 556.30404,524.61671 556.30413,487.6509 c -9e-5,-25.47244 2.36852,-51.56604 7.10585,-78.28087 4.73714,-26.71492 11.22171,-52.10958 19.45373,-76.18407 5.43605,-15.84251 14.98817,-38.59675 28.65639,-68.26278 z" />
      <glyph
         glyph-name="glifo 20"
         id="glyph4338"
         unicode=")"
         d="m 494.33177,264.92318 44.96491,0 c 23.76391,35.8788 41.85857,73.15536 54.28405,111.82982 12.42557,38.67443 18.63833,76.10631 18.63831,112.29577 2e-5,44.88708 -7.68827,87.36684 -23.0649,127.4394 -13.35739,34.79122 -30.28717,66.8646 -50.78938,96.22024 l -44.73193,0 c 21.27885,-47.06201 35.91767,-87.09549 43.91651,-120.10056 7.99903,-33.00553 11.99849,-67.99114 11.9984,-104.95695 9e-5,-25.47244 -2.36852,-51.56604 -7.10585,-78.28087 -4.73714,-26.71492 -11.22171,-52.10958 -19.45373,-76.18407 -5.43605,-15.84251 -14.98817,-38.59675 -28.65639,-68.26278 z" />
    </font>
</defs>
</svg>
